<svg xmlns="http://www.w3.org/2000/svg" xmlns:xlink="http://www.w3.org/1999/xlink" contentStyleType="text/css" data-diagram-type="CLASS" height="732px" preserveAspectRatio="none" style="width:987px;height:732px;background:#FFFFFF;" version="1.1" viewBox="0 0 987 732" width="987px" zoomAndPan="magnify"><defs/><g><!--class Main--><g id="elem_Main"><rect codeLine="1" fill="#F1F1F1" height="96.8906" id="Main" rx="2.5" ry="2.5" style="stroke:#181818;stroke-width:0.5;" width="111.3945" x="310.5" y="7"/><ellipse cx="346.1881" cy="23" fill="#ADD1B2" rx="11" ry="11" style="stroke:#181818;stroke-width:1;"/><path d="M349.1569,28.6406 Q348.5788,28.9375 347.9381,29.0781 Q347.2975,29.2344 346.5944,29.2344 Q344.0944,29.2344 342.7663,27.5938 Q341.4538,25.9375 341.4538,22.8125 Q341.4538,19.6875 342.7663,18.0313 Q344.0944,16.375 346.5944,16.375 Q347.2975,16.375 347.9381,16.5313 Q348.5944,16.6875 349.1569,16.9844 L349.1569,19.7031 Q348.5319,19.125 347.9381,18.8594 Q347.3444,18.5781 346.7194,18.5781 Q345.3756,18.5781 344.6881,19.6563 Q344.0006,20.7188 344.0006,22.8125 Q344.0006,24.9063 344.6881,25.9844 Q345.3756,27.0469 346.7194,27.0469 Q347.3444,27.0469 347.9381,26.7813 Q348.5319,26.5 349.1569,25.9219 L349.1569,28.6406 Z " fill="#000000"/><text fill="#000000" font-family="sans-serif" font-size="14" lengthAdjust="spacing" textLength="33.4209" x="364.7855" y="27.8467">Main</text><line style="stroke:#181818;stroke-width:0.5;" x1="311.5" x2="420.8945" y1="39" y2="39"/><text fill="#000000" font-family="sans-serif" font-size="14" lengthAdjust="spacing" textLength="90.1045" x="316.5" y="55.9951">Lobby lobby;</text><text fill="#000000" font-family="sans-serif" font-size="14" lengthAdjust="spacing" textLength="91.1504" x="316.5" y="72.292">Partie partie;</text><text fill="#000000" font-family="sans-serif" font-size="14" lengthAdjust="spacing" textLength="99.3945" x="316.5" y="88.5889">Server server;</text><line style="stroke:#181818;stroke-width:0.5;" x1="311.5" x2="420.8945" y1="95.8906" y2="95.8906"/></g><!--class Lobby--><g id="elem_Lobby"><rect codeLine="7" fill="#F1F1F1" height="48" id="Lobby" rx="2.5" ry="2.5" style="stroke:#181818;stroke-width:0.5;" width="74.4238" x="205" y="172"/><ellipse cx="220" cy="188" fill="#ADD1B2" rx="11" ry="11" style="stroke:#181818;stroke-width:1;"/><path d="M222.9688,193.6406 Q222.3906,193.9375 221.75,194.0781 Q221.1094,194.2344 220.4063,194.2344 Q217.9063,194.2344 216.5781,192.5938 Q215.2656,190.9375 215.2656,187.8125 Q215.2656,184.6875 216.5781,183.0313 Q217.9063,181.375 220.4063,181.375 Q221.1094,181.375 221.75,181.5313 Q222.4063,181.6875 222.9688,181.9844 L222.9688,184.7031 Q222.3438,184.125 221.75,183.8594 Q221.1563,183.5781 220.5313,183.5781 Q219.1875,183.5781 218.5,184.6563 Q217.8125,185.7188 217.8125,187.8125 Q217.8125,189.9063 218.5,190.9844 Q219.1875,192.0469 220.5313,192.0469 Q221.1563,192.0469 221.75,191.7813 Q222.3438,191.5 222.9688,190.9219 L222.9688,193.6406 Z " fill="#000000"/><text fill="#000000" font-family="sans-serif" font-size="14" lengthAdjust="spacing" textLength="42.4238" x="234" y="192.8467">Lobby</text><line style="stroke:#181818;stroke-width:0.5;" x1="206" x2="278.4238" y1="204" y2="204"/><line style="stroke:#181818;stroke-width:0.5;" x1="206" x2="278.4238" y1="212" y2="212"/></g><!--class Server--><g id="elem_Server"><rect codeLine="10" fill="#F1F1F1" height="64.2969" id="Server" rx="2.5" ry="2.5" style="stroke:#181818;stroke-width:0.5;" width="103.1504" x="314.5" y="164"/><ellipse cx="340.8581" cy="180" fill="#ADD1B2" rx="11" ry="11" style="stroke:#181818;stroke-width:1;"/><path d="M343.8269,185.6406 Q343.2487,185.9375 342.6081,186.0781 Q341.9675,186.2344 341.2644,186.2344 Q338.7644,186.2344 337.4362,184.5938 Q336.1237,182.9375 336.1237,179.8125 Q336.1237,176.6875 337.4362,175.0313 Q338.7644,173.375 341.2644,173.375 Q341.9675,173.375 342.6081,173.5313 Q343.2644,173.6875 343.8269,173.9844 L343.8269,176.7031 Q343.2019,176.125 342.6081,175.8594 Q342.0144,175.5781 341.3894,175.5781 Q340.0456,175.5781 339.3581,176.6563 Q338.6706,177.7188 338.6706,179.8125 Q338.6706,181.9063 339.3581,182.9844 Q340.0456,184.0469 341.3894,184.0469 Q342.0144,184.0469 342.6081,183.7813 Q343.2019,183.5 343.8269,182.9219 L343.8269,185.6406 Z " fill="#000000"/><text fill="#000000" font-family="sans-serif" font-size="14" lengthAdjust="spacing" textLength="45.9102" x="357.3821" y="184.8467">Server</text><line style="stroke:#181818;stroke-width:0.5;" x1="315.5" x2="416.6504" y1="196" y2="196"/><text fill="#000000" font-family="sans-serif" font-size="14" lengthAdjust="spacing" textLength="91.1504" x="320.5" y="212.9951">Partie partie;</text><line style="stroke:#181818;stroke-width:0.5;" x1="315.5" x2="416.6504" y1="220.2969" y2="220.2969"/></g><!--class Partie--><g id="elem_Partie"><rect codeLine="14" fill="#F1F1F1" height="80.5938" id="Partie" rx="2.5" ry="2.5" style="stroke:#181818;stroke-width:0.5;" width="137.6719" x="349" y="288"/><ellipse cx="393.2061" cy="304" fill="#ADD1B2" rx="11" ry="11" style="stroke:#181818;stroke-width:1;"/><path d="M396.1748,309.6406 Q395.5967,309.9375 394.9561,310.0781 Q394.3154,310.2344 393.6123,310.2344 Q391.1123,310.2344 389.7842,308.5938 Q388.4717,306.9375 388.4717,303.8125 Q388.4717,300.6875 389.7842,299.0313 Q391.1123,297.375 393.6123,297.375 Q394.3154,297.375 394.9561,297.5313 Q395.6123,297.6875 396.1748,297.9844 L396.1748,300.7031 Q395.5498,300.125 394.9561,299.8594 Q394.3623,299.5781 393.7373,299.5781 Q392.3936,299.5781 391.7061,300.6563 Q391.0186,301.7188 391.0186,303.8125 Q391.0186,305.9063 391.7061,306.9844 Q392.3936,308.0469 393.7373,308.0469 Q394.3623,308.0469 394.9561,307.7813 Q395.5498,307.5 396.1748,306.9219 L396.1748,309.6406 Z " fill="#000000"/><text fill="#000000" font-family="sans-serif" font-size="14" lengthAdjust="spacing" textLength="40.7695" x="413.6963" y="308.8467">Partie</text><line style="stroke:#181818;stroke-width:0.5;" x1="350" x2="485.6719" y1="320" y2="320"/><text fill="#000000" font-family="sans-serif" font-size="14" lengthAdjust="spacing" textLength="88.1494" x="355" y="336.9951">Client client;</text><text fill="#000000" font-family="sans-serif" font-size="14" lengthAdjust="spacing" textLength="125.6719" x="355" y="353.292">Joueur[6] joueurs;</text><line style="stroke:#181818;stroke-width:0.5;" x1="350" x2="485.6719" y1="360.5938" y2="360.5938"/></g><!--class Client--><g id="elem_Client"><rect codeLine="19" fill="#F1F1F1" height="48" id="Client" rx="2.5" ry="2.5" style="stroke:#181818;stroke-width:0.5;" width="72.5303" x="324.5" y="437"/><ellipse cx="339.5" cy="453" fill="#ADD1B2" rx="11" ry="11" style="stroke:#181818;stroke-width:1;"/><path d="M342.4688,458.6406 Q341.8906,458.9375 341.25,459.0781 Q340.6094,459.2344 339.9063,459.2344 Q337.4063,459.2344 336.0781,457.5938 Q334.7656,455.9375 334.7656,452.8125 Q334.7656,449.6875 336.0781,448.0313 Q337.4063,446.375 339.9063,446.375 Q340.6094,446.375 341.25,446.5313 Q341.9063,446.6875 342.4688,446.9844 L342.4688,449.7031 Q341.8438,449.125 341.25,448.8594 Q340.6563,448.5781 340.0313,448.5781 Q338.6875,448.5781 338,449.6563 Q337.3125,450.7188 337.3125,452.8125 Q337.3125,454.9063 338,455.9844 Q338.6875,457.0469 340.0313,457.0469 Q340.6563,457.0469 341.25,456.7813 Q341.8438,456.5 342.4688,455.9219 L342.4688,458.6406 Z " fill="#000000"/><text fill="#000000" font-family="sans-serif" font-size="14" lengthAdjust="spacing" textLength="40.5303" x="353.5" y="457.8467">Client</text><line style="stroke:#181818;stroke-width:0.5;" x1="325.5" x2="396.0303" y1="469" y2="469"/><line style="stroke:#181818;stroke-width:0.5;" x1="325.5" x2="396.0303" y1="477" y2="477"/></g><!--class Joueur--><g id="elem_Joueur"><rect codeLine="22" fill="#F1F1F1" height="64.2969" id="Joueur" rx="2.5" ry="2.5" style="stroke:#181818;stroke-width:0.5;" width="86.3271" x="433" y="429"/><ellipse cx="452.2829" cy="445" fill="#ADD1B2" rx="11" ry="11" style="stroke:#181818;stroke-width:1;"/><path d="M455.2517,450.6406 Q454.6735,450.9375 454.0329,451.0781 Q453.3923,451.2344 452.6892,451.2344 Q450.1892,451.2344 448.861,449.5938 Q447.5485,447.9375 447.5485,444.8125 Q447.5485,441.6875 448.861,440.0313 Q450.1892,438.375 452.6892,438.375 Q453.3923,438.375 454.0329,438.5313 Q454.6892,438.6875 455.2517,438.9844 L455.2517,441.7031 Q454.6267,441.125 454.0329,440.8594 Q453.4392,440.5781 452.8142,440.5781 Q451.4704,440.5781 450.7829,441.6563 Q450.0954,442.7188 450.0954,444.8125 Q450.0954,446.9063 450.7829,447.9844 Q451.4704,449.0469 452.8142,449.0469 Q453.4392,449.0469 454.0329,448.7813 Q454.6267,448.5 455.2517,447.9219 L455.2517,450.6406 Z " fill="#000000"/><text fill="#000000" font-family="sans-serif" font-size="14" lengthAdjust="spacing" textLength="44.8096" x="467.2347" y="449.8467">Joueur</text><line style="stroke:#181818;stroke-width:0.5;" x1="434" x2="518.3271" y1="461" y2="461"/><text fill="#000000" font-family="sans-serif" font-size="14" lengthAdjust="spacing" textLength="74.3271" x="439" y="477.9951">Tank tank;</text><line style="stroke:#181818;stroke-width:0.5;" x1="434" x2="518.3271" y1="485.2969" y2="485.2969"/></g><!--class Tank--><g id="elem_Tank"><rect codeLine="26" fill="#F1F1F1" height="64.2969" id="Tank" rx="2.5" ry="2.5" style="stroke:#181818;stroke-width:0.5;" width="66.1113" x="443" y="553"/><ellipse cx="458" cy="569" fill="#ADD1B2" rx="11" ry="11" style="stroke:#181818;stroke-width:1;"/><path d="M460.9688,574.6406 Q460.3906,574.9375 459.75,575.0781 Q459.1094,575.2344 458.4063,575.2344 Q455.9063,575.2344 454.5781,573.5938 Q453.2656,571.9375 453.2656,568.8125 Q453.2656,565.6875 454.5781,564.0313 Q455.9063,562.375 458.4063,562.375 Q459.1094,562.375 459.75,562.5313 Q460.4063,562.6875 460.9688,562.9844 L460.9688,565.7031 Q460.3438,565.125 459.75,564.8594 Q459.1563,564.5781 458.5313,564.5781 Q457.1875,564.5781 456.5,565.6563 Q455.8125,566.7188 455.8125,568.8125 Q455.8125,570.9063 456.5,571.9844 Q457.1875,573.0469 458.5313,573.0469 Q459.1563,573.0469 459.75,572.7813 Q460.3438,572.5 460.9688,571.9219 L460.9688,574.6406 Z " fill="#000000"/><text fill="#000000" font-family="sans-serif" font-size="14" lengthAdjust="spacing" textLength="34.1113" x="472" y="573.8467">Tank</text><line style="stroke:#181818;stroke-width:0.5;" x1="444" x2="508.1113" y1="585" y2="585"/><text fill="#000000" font-family="sans-serif" font-size="14" lengthAdjust="spacing" textLength="42.499" x="449" y="601.9951">Tir tir;</text><line style="stroke:#181818;stroke-width:0.5;" x1="444" x2="508.1113" y1="609.2969" y2="609.2969"/></g><!--class Tir--><g id="elem_Tir"><rect codeLine="30" fill="#F1F1F1" height="48" id="Tir" rx="2.5" ry="2.5" style="stroke:#181818;stroke-width:0.5;" width="50.1973" x="7" y="677"/><ellipse cx="22" cy="693" fill="#ADD1B2" rx="11" ry="11" style="stroke:#181818;stroke-width:1;"/><path d="M24.9688,698.6406 Q24.3906,698.9375 23.75,699.0781 Q23.1094,699.2344 22.4063,699.2344 Q19.9063,699.2344 18.5781,697.5938 Q17.2656,695.9375 17.2656,692.8125 Q17.2656,689.6875 18.5781,688.0313 Q19.9063,686.375 22.4063,686.375 Q23.1094,686.375 23.75,686.5313 Q24.4063,686.6875 24.9688,686.9844 L24.9688,689.7031 Q24.3438,689.125 23.75,688.8594 Q23.1563,688.5781 22.5313,688.5781 Q21.1875,688.5781 20.5,689.6563 Q19.8125,690.7188 19.8125,692.8125 Q19.8125,694.9063 20.5,695.9844 Q21.1875,697.0469 22.5313,697.0469 Q23.1563,697.0469 23.75,696.7813 Q24.3438,696.5 24.9688,695.9219 L24.9688,698.6406 Z " fill="#000000"/><text fill="#000000" font-family="sans-serif" font-size="14" lengthAdjust="spacing" textLength="18.1973" x="36" y="697.8467">Tir</text><line style="stroke:#181818;stroke-width:0.5;" x1="8" x2="56.1973" y1="709" y2="709"/><line style="stroke:#181818;stroke-width:0.5;" x1="8" x2="56.1973" y1="717" y2="717"/></g><!--class ClassiqueTank--><g id="elem_ClassiqueTank"><rect codeLine="33" fill="#F1F1F1" height="48" id="ClassiqueTank" rx="2.5" ry="2.5" style="stroke:#181818;stroke-width:0.5;" width="133.2061" x="92.5" y="677"/><ellipse cx="107.5" cy="693" fill="#ADD1B2" rx="11" ry="11" style="stroke:#181818;stroke-width:1;"/><path d="M110.4688,698.6406 Q109.8906,698.9375 109.25,699.0781 Q108.6094,699.2344 107.9063,699.2344 Q105.4063,699.2344 104.0781,697.5938 Q102.7656,695.9375 102.7656,692.8125 Q102.7656,689.6875 104.0781,688.0313 Q105.4063,686.375 107.9063,686.375 Q108.6094,686.375 109.25,686.5313 Q109.9063,686.6875 110.4688,686.9844 L110.4688,689.7031 Q109.8438,689.125 109.25,688.8594 Q108.6563,688.5781 108.0313,688.5781 Q106.6875,688.5781 106,689.6563 Q105.3125,690.7188 105.3125,692.8125 Q105.3125,694.9063 106,695.9844 Q106.6875,697.0469 108.0313,697.0469 Q108.6563,697.0469 109.25,696.7813 Q109.8438,696.5 110.4688,695.9219 L110.4688,698.6406 Z " fill="#000000"/><text fill="#000000" font-family="sans-serif" font-size="14" lengthAdjust="spacing" textLength="101.2061" x="121.5" y="697.8467">ClassiqueTank</text><line style="stroke:#181818;stroke-width:0.5;" x1="93.5" x2="224.7061" y1="709" y2="709"/><line style="stroke:#181818;stroke-width:0.5;" x1="93.5" x2="224.7061" y1="717" y2="717"/></g><!--class MortierTank--><g id="elem_MortierTank"><rect codeLine="36" fill="#F1F1F1" height="48" id="MortierTank" rx="2.5" ry="2.5" style="stroke:#181818;stroke-width:0.5;" width="116.2598" x="261" y="677"/><ellipse cx="276" cy="693" fill="#ADD1B2" rx="11" ry="11" style="stroke:#181818;stroke-width:1;"/><path d="M278.9688,698.6406 Q278.3906,698.9375 277.75,699.0781 Q277.1094,699.2344 276.4063,699.2344 Q273.9063,699.2344 272.5781,697.5938 Q271.2656,695.9375 271.2656,692.8125 Q271.2656,689.6875 272.5781,688.0313 Q273.9063,686.375 276.4063,686.375 Q277.1094,686.375 277.75,686.5313 Q278.4063,686.6875 278.9688,686.9844 L278.9688,689.7031 Q278.3438,689.125 277.75,688.8594 Q277.1563,688.5781 276.5313,688.5781 Q275.1875,688.5781 274.5,689.6563 Q273.8125,690.7188 273.8125,692.8125 Q273.8125,694.9063 274.5,695.9844 Q275.1875,697.0469 276.5313,697.0469 Q277.1563,697.0469 277.75,696.7813 Q278.3438,696.5 278.9688,695.9219 L278.9688,698.6406 Z " fill="#000000"/><text fill="#000000" font-family="sans-serif" font-size="14" lengthAdjust="spacing" textLength="84.2598" x="290" y="697.8467">MortierTank</text><line style="stroke:#181818;stroke-width:0.5;" x1="262" x2="376.2598" y1="709" y2="709"/><line style="stroke:#181818;stroke-width:0.5;" x1="262" x2="376.2598" y1="717" y2="717"/></g><!--class SoigneurTank--><g id="elem_SoigneurTank"><rect codeLine="39" fill="#F1F1F1" height="48" id="SoigneurTank" rx="2.5" ry="2.5" style="stroke:#181818;stroke-width:0.5;" width="128.4551" x="412" y="677"/><ellipse cx="427" cy="693" fill="#ADD1B2" rx="11" ry="11" style="stroke:#181818;stroke-width:1;"/><path d="M429.9688,698.6406 Q429.3906,698.9375 428.75,699.0781 Q428.1094,699.2344 427.4063,699.2344 Q424.9063,699.2344 423.5781,697.5938 Q422.2656,695.9375 422.2656,692.8125 Q422.2656,689.6875 423.5781,688.0313 Q424.9063,686.375 427.4063,686.375 Q428.1094,686.375 428.75,686.5313 Q429.4063,686.6875 429.9688,686.9844 L429.9688,689.7031 Q429.3438,689.125 428.75,688.8594 Q428.1563,688.5781 427.5313,688.5781 Q426.1875,688.5781 425.5,689.6563 Q424.8125,690.7188 424.8125,692.8125 Q424.8125,694.9063 425.5,695.9844 Q426.1875,697.0469 427.5313,697.0469 Q428.1563,697.0469 428.75,696.7813 Q429.3438,696.5 429.9688,695.9219 L429.9688,698.6406 Z " fill="#000000"/><text fill="#000000" font-family="sans-serif" font-size="14" lengthAdjust="spacing" textLength="96.4551" x="441" y="697.8467">SoigneurTank</text><line style="stroke:#181818;stroke-width:0.5;" x1="413" x2="539.4551" y1="709" y2="709"/><line style="stroke:#181818;stroke-width:0.5;" x1="413" x2="539.4551" y1="717" y2="717"/></g><!--class SniperTank--><g id="elem_SniperTank"><rect codeLine="42" fill="#F1F1F1" height="48" id="SniperTank" rx="2.5" ry="2.5" style="stroke:#181818;stroke-width:0.5;" width="111.0166" x="575.5" y="677"/><ellipse cx="590.5" cy="693" fill="#ADD1B2" rx="11" ry="11" style="stroke:#181818;stroke-width:1;"/><path d="M593.4688,698.6406 Q592.8906,698.9375 592.25,699.0781 Q591.6094,699.2344 590.9063,699.2344 Q588.4063,699.2344 587.0781,697.5938 Q585.7656,695.9375 585.7656,692.8125 Q585.7656,689.6875 587.0781,688.0313 Q588.4063,686.375 590.9063,686.375 Q591.6094,686.375 592.25,686.5313 Q592.9063,686.6875 593.4688,686.9844 L593.4688,689.7031 Q592.8438,689.125 592.25,688.8594 Q591.6563,688.5781 591.0313,688.5781 Q589.6875,688.5781 589,689.6563 Q588.3125,690.7188 588.3125,692.8125 Q588.3125,694.9063 589,695.9844 Q589.6875,697.0469 591.0313,697.0469 Q591.6563,697.0469 592.25,696.7813 Q592.8438,696.5 593.4688,695.9219 L593.4688,698.6406 Z " fill="#000000"/><text fill="#000000" font-family="sans-serif" font-size="14" lengthAdjust="spacing" textLength="79.0166" x="604.5" y="697.8467">SniperTank</text><line style="stroke:#181818;stroke-width:0.5;" x1="576.5" x2="685.5166" y1="709" y2="709"/><line style="stroke:#181818;stroke-width:0.5;" x1="576.5" x2="685.5166" y1="717" y2="717"/></g><!--class SolideTank--><g id="elem_SolideTank"><rect codeLine="45" fill="#F1F1F1" height="48" id="SolideTank" rx="2.5" ry="2.5" style="stroke:#181818;stroke-width:0.5;" width="108.8428" x="721.5" y="677"/><ellipse cx="736.5" cy="693" fill="#ADD1B2" rx="11" ry="11" style="stroke:#181818;stroke-width:1;"/><path d="M739.4688,698.6406 Q738.8906,698.9375 738.25,699.0781 Q737.6094,699.2344 736.9063,699.2344 Q734.4063,699.2344 733.0781,697.5938 Q731.7656,695.9375 731.7656,692.8125 Q731.7656,689.6875 733.0781,688.0313 Q734.4063,686.375 736.9063,686.375 Q737.6094,686.375 738.25,686.5313 Q738.9063,686.6875 739.4688,686.9844 L739.4688,689.7031 Q738.8438,689.125 738.25,688.8594 Q737.6563,688.5781 737.0313,688.5781 Q735.6875,688.5781 735,689.6563 Q734.3125,690.7188 734.3125,692.8125 Q734.3125,694.9063 735,695.9844 Q735.6875,697.0469 737.0313,697.0469 Q737.6563,697.0469 738.25,696.7813 Q738.8438,696.5 739.4688,695.9219 L739.4688,698.6406 Z " fill="#000000"/><text fill="#000000" font-family="sans-serif" font-size="14" lengthAdjust="spacing" textLength="76.8428" x="750.5" y="697.8467">SolideTank</text><line style="stroke:#181818;stroke-width:0.5;" x1="722.5" x2="829.3428" y1="709" y2="709"/><line style="stroke:#181818;stroke-width:0.5;" x1="722.5" x2="829.3428" y1="717" y2="717"/></g><!--class RapideTank--><g id="elem_RapideTank"><rect codeLine="48" fill="#F1F1F1" height="48" id="RapideTank" rx="2.5" ry="2.5" style="stroke:#181818;stroke-width:0.5;" width="114.6943" x="865.5" y="677"/><ellipse cx="880.5" cy="693" fill="#ADD1B2" rx="11" ry="11" style="stroke:#181818;stroke-width:1;"/><path d="M883.4688,698.6406 Q882.8906,698.9375 882.25,699.0781 Q881.6094,699.2344 880.9063,699.2344 Q878.4063,699.2344 877.0781,697.5938 Q875.7656,695.9375 875.7656,692.8125 Q875.7656,689.6875 877.0781,688.0313 Q878.4063,686.375 880.9063,686.375 Q881.6094,686.375 882.25,686.5313 Q882.9063,686.6875 883.4688,686.9844 L883.4688,689.7031 Q882.8438,689.125 882.25,688.8594 Q881.6563,688.5781 881.0313,688.5781 Q879.6875,688.5781 879,689.6563 Q878.3125,690.7188 878.3125,692.8125 Q878.3125,694.9063 879,695.9844 Q879.6875,697.0469 881.0313,697.0469 Q881.6563,697.0469 882.25,696.7813 Q882.8438,696.5 883.4688,695.9219 L883.4688,698.6406 Z " fill="#000000"/><text fill="#000000" font-family="sans-serif" font-size="14" lengthAdjust="spacing" textLength="82.6943" x="894.5" y="697.8467">RapideTank</text><line style="stroke:#181818;stroke-width:0.5;" x1="866.5" x2="979.1943" y1="709" y2="709"/><line style="stroke:#181818;stroke-width:0.5;" x1="866.5" x2="979.1943" y1="717" y2="717"/></g><!--reverse link Tank to ClassiqueTank--><g id="link_Tank_ClassiqueTank"><path d="M425.8311,600.7308 C370.9011,618.3608 278.77,651.78 212.76,676.9 " fill="transparent" id="Tank-backto-ClassiqueTank" style="stroke:#181818;stroke-width:1;"/><polygon fill="transparent" points="442.97,595.23,423.9975,595.0178,427.6647,606.4438,442.97,595.23" style="stroke:#181818;stroke-width:1;"/></g><!--reverse link Tank to ClassiqueTank--><g id="link_Tank_ClassiqueTank"><path codeLine="59" d="M426.0805,607.962 C374.5005,628.262 292.08,657.46 225.51,679.89 " fill="transparent" id="Tank-backto-ClassiqueTank-1" style="stroke:#181818;stroke-width:1;"/><polygon fill="transparent" points="442.83,601.37,423.8832,602.3788,428.2778,613.5452,442.83,601.37" style="stroke:#181818;stroke-width:1;"/></g><!--reverse link Tank to MortierTank--><g id="link_Tank_MortierTank"><path d="M427.479,612.9342 C396.359,632.6242 366.86,655.21 340.21,676.99 " fill="transparent" id="Tank-backto-MortierTank" style="stroke:#181818;stroke-width:1;"/><polygon fill="transparent" points="442.69,603.31,424.2709,607.8639,430.6871,618.0045,442.69,603.31" style="stroke:#181818;stroke-width:1;"/></g><!--reverse link Tank to MortierTank--><g id="link_Tank_MortierTank"><path codeLine="60" d="M431.1497,628.3005 C407.2497,647.1605 388.46,659.65 362,676.84 " fill="transparent" id="Tank-backto-MortierTank-1" style="stroke:#181818;stroke-width:1;"/><polygon fill="transparent" points="445.28,617.15,427.4328,623.5904,434.8665,633.0106,445.28,617.15" style="stroke:#181818;stroke-width:1;"/></g><!--reverse link Tank to SoigneurTank--><g id="link_Tank_SoigneurTank"><path d="M462.6488,635.0546 C460.6988,653.9146 462.88,659.65 465.51,676.84 " fill="transparent" id="Tank-backto-SoigneurTank" style="stroke:#181818;stroke-width:1;"/><polygon fill="transparent" points="464.5,617.15,456.6806,634.4375,468.617,635.6716,464.5,617.15" style="stroke:#181818;stroke-width:1;"/></g><!--reverse link Tank to SoigneurTank--><g id="link_Tank_SoigneurTank"><path codeLine="61" d="M490.1344,635.0436 C492.1944,653.9036 489.89,659.65 487.11,676.84 " fill="transparent" id="Tank-backto-SoigneurTank-1" style="stroke:#181818;stroke-width:1;"/><polygon fill="transparent" points="488.18,617.15,484.1699,635.6951,496.099,634.3921,488.18,617.15" style="stroke:#181818;stroke-width:1;"/></g><!--reverse link Tank to SniperTank--><g id="link_Tank_SniperTank"><path d="M520.9323,628.3611 C544.6223,647.2211 563.02,659.65 589.02,676.84 " fill="transparent" id="Tank-backto-SniperTank" style="stroke:#181818;stroke-width:1;"/><polygon fill="transparent" points="506.85,617.15,517.1952,633.0552,524.6693,623.667,506.85,617.15" style="stroke:#181818;stroke-width:1;"/></g><!--reverse link Tank to SniperTank--><g id="link_Tank_SniperTank"><path codeLine="62" d="M524.3769,612.7007 C555.3569,632.3207 584.48,655.02 610.68,676.89 " fill="transparent" id="Tank-backto-SniperTank-1" style="stroke:#181818;stroke-width:1;"/><polygon fill="transparent" points="509.17,603.07,521.1667,617.7697,527.5871,607.6317,509.17,603.07" style="stroke:#181818;stroke-width:1;"/></g><!--reverse link Tank to SolideTank--><g id="link_Tank_SolideTank"><path d="M525.7691,608.98 C577.2491,630.31 659.17,660.9 721.24,682.78 " fill="transparent" id="Tank-backto-SolideTank" style="stroke:#181818;stroke-width:1;"/><polygon fill="transparent" points="509.14,602.09,523.4724,614.5231,528.0658,603.437,509.14,602.09" style="stroke:#181818;stroke-width:1;"/></g><!--reverse link Tank to SolideTank--><g id="link_Tank_SolideTank"><path codeLine="63" d="M526.3131,601.3516 C579.3631,619.1716 664.93,652.04 726.5,676.98 " fill="transparent" id="Tank-backto-SolideTank-1" style="stroke:#181818;stroke-width:1;"/><polygon fill="transparent" points="509.25,595.62,524.4025,607.0393,528.2236,595.664,509.25,595.62" style="stroke:#181818;stroke-width:1;"/></g><!--reverse link Tank to RapideTank--><g id="link_Tank_RapideTank"><path d="M526.5111,600.2115 C589.9411,616.0915 713.05,644.52 831,677 C842.03,680.04 853.9,683.56 865.46,686.92 " fill="transparent" id="Tank-backto-RapideTank" style="stroke:#181818;stroke-width:1;"/><polygon fill="transparent" points="509.05,595.84,525.0539,606.0318,527.9683,594.3911,509.05,595.84" style="stroke:#181818;stroke-width:1;"/></g><!--reverse link Tank to RapideTank--><g id="link_Tank_RapideTank"><path codeLine="64" d="M526.6851,594.836 C595.0251,608.206 735.25,641 865.62,676.89 " fill="transparent" id="Tank-backto-RapideTank-1" style="stroke:#181818;stroke-width:1;"/><polygon fill="transparent" points="509.02,591.38,525.5331,600.7244,527.8371,588.9476,509.02,591.38" style="stroke:#181818;stroke-width:1;"/></g><!--link Main to Lobby--><g id="link_Main_Lobby"><path codeLine="51" d="M323.33,104.16 C302.87,127.01 283.2918,148.8695 266.8118,167.2795 " fill="transparent" id="Main-to-Lobby" style="stroke:#181818;stroke-width:1;"/><polygon fill="#181818" points="262.81,171.75,271.7931,167.7121,266.1449,168.0246,265.8324,162.3764,262.81,171.75" style="stroke:#181818;stroke-width:1;"/></g><!--link Main to Partie--><g id="link_Main_Partie"><path codeLine="52" d="M404.87,104.17 C416.98,121.87 428.79,142.83 435,164 C447.05,205.08 440.6294,248.3378 432.0194,281.9378 " fill="transparent" id="Main-to-Partie" style="stroke:#181818;stroke-width:1;"/><polygon fill="#181818" points="430.53,287.75,436.6389,280.0246,431.7711,282.9065,428.8893,278.0388,430.53,287.75" style="stroke:#181818;stroke-width:1;"/></g><!--link Main to Server--><g id="link_Main_Server"><path codeLine="53" d="M366,104.16 C366,123.88 366,140.2 366,157.77 " fill="transparent" id="Main-to-Server" style="stroke:#181818;stroke-width:1;"/><polygon fill="#181818" points="366,163.77,370,154.77,366,158.77,362,154.77,366,163.77" style="stroke:#181818;stroke-width:1;"/></g><!--link Server to Partie--><g id="link_Server_Partie"><path codeLine="54" d="M378.46,228.26 C385.55,246.05 392.2777,262.9567 399.8777,282.0167 " fill="transparent" id="Server-to-Partie" style="stroke:#181818;stroke-width:1;"/><polygon fill="#181818" points="402.1,287.59,402.4821,277.7486,400.2481,282.9456,395.051,280.7116,402.1,287.59" style="stroke:#181818;stroke-width:1;"/></g><!--link Partie to Client--><g id="link_Partie_Client"><path codeLine="55" d="M400.74,369.01 C391.04,391.21 381.6834,412.6624 373.4734,431.4424 " fill="transparent" id="Partie-to-Client" style="stroke:#181818;stroke-width:1;"/><polygon fill="#181818" points="371.07,436.94,378.3401,430.2958,373.0728,432.3587,371.01,427.0913,371.07,436.94" style="stroke:#181818;stroke-width:1;"/></g><!--link Partie to Joueur--><g id="link_Partie_Joueur"><path codeLine="56" d="M435.56,369.01 C444.09,388.21 451.7626,405.4774 459.7426,423.4274 " fill="transparent" id="Partie-to-Joueur" style="stroke:#181818;stroke-width:1;"/><polygon fill="#181818" points="462.18,428.91,462.179,419.0611,460.1488,424.3412,454.8688,422.311,462.18,428.91" style="stroke:#181818;stroke-width:1;"/><text fill="#000000" font-family="sans-serif" font-size="13" lengthAdjust="spacing" textLength="8.271" x="450.4988" y="417.7945">6</text></g><!--link Joueur to Tank--><g id="link_Joueur_Tank"><path codeLine="57" d="M476,493.1 C476,511.46 476,528.61 476,546.96 " fill="transparent" id="Joueur-to-Tank" style="stroke:#181818;stroke-width:1;"/><polygon fill="#181818" points="476,552.96,480,543.96,476,547.96,472,543.96,476,552.96" style="stroke:#181818;stroke-width:1;"/></g><!--link Tank to Tir--><g id="link_Tank_Tir"><path codeLine="58" d="M442.91,590.44 C373.2,600.45 206.76,627.83 75,677 C69.13,679.19 68.3845,679.2743 62.7245,682.2143 " fill="transparent" id="Tank-to-Tir" style="stroke:#181818;stroke-width:1;"/><polygon fill="#181818" points="57.4,684.98,67.2306,684.3811,61.8371,682.6752,63.543,677.2817,57.4,684.98" style="stroke:#181818;stroke-width:1;"/></g><!--SRC=[XP4nRuCm48Lt_ufJTjOiH5swLOrK9Tsg30Qiwb9ag35H8jh_NdntXKDAAOFDVRmxc_VAsdOTx2rw60oCptDJ53UeqveJUB4XeeEMDaP75oukG4TRRhwDAMaCzmup4E5mRz0a4iwYnngTZr3IngSzDRthmzls16TwwrIloDMHh9PfhzP_G1mNrK9CFcE0YFeF4Xdq-775pzvHaxj6vwjfmgJQD-a7mghcsE2x7o-sBlBO_ZkdnchzEWVR_YsXfBFiWREQImvXhZav8m4gXQIL29kloMQxaG2Cv91eEjtG5QZ2mCNkAykM3YkkF5LKkwZnvDj2- -kKWhCtFm00]--></g></svg>